<?xml version="1.0" standalone="no"?>
<!DOCTYPE svg PUBLIC "-//W3C//DTD SVG 20010904//EN"
 "http://www.w3.org/TR/2001/REC-SVG-20010904/DTD/svg10.dtd">
<svg version="1.0" xmlns="http://www.w3.org/2000/svg"
 width="615.000000pt" height="615.000000pt" viewBox="0 0 615.000000 615.000000"
 preserveAspectRatio="xMidYMid meet">
<metadata>
Created by potrace 1.14, written by Peter Selinger 2001-2017
</metadata>
<g transform="translate(0.000000,615.000000) scale(0.100000,-0.100000)"
fill="#000000" stroke="none">
<path d="M3210 3837 c-14 -7 -32 -18 -40 -26 -8 -7 -103 -77 -210 -155 -131
-95 -204 -155 -225 -184 l-30 -43 0 -332 c0 -279 2 -337 15 -360 8 -16 98 -90
200 -166 312 -231 288 -216 345 -216 47 0 57 4 126 60 42 33 91 71 109 85 57
43 90 81 90 104 0 14 -28 49 -78 99 -113 113 -116 112 -301 -59 -68 -63 -127
-68 -160 -13 -17 28 -19 59 -21 372 -1 188 -2 381 -2 428 -1 47 2 99 6 115 10
38 44 74 71 74 29 0 98 -46 175 -118 72 -67 108 -87 142 -79 25 7 178 151 178
168 0 25 -36 67 -98 114 -36 28 -82 65 -101 82 -66 60 -133 77 -191 50z m141
-150 c57 -45 104 -88 106 -94 2 -6 -4 -18 -13 -27 -20 -20 -25 -17 -156 88
-80 64 -100 91 -81 109 17 18 50 0 144 -76z m-459 -245 c9 -42 0 -664 -9 -673
-6 -6 -19 -9 -29 -7 -18 3 -19 21 -22 342 -1 226 1 343 8 351 14 17 47 8 52
-13z m562 -788 c8 -21 6 -24 -61 -75 -32 -24 -60 -46 -63 -49 -17 -18 -87 -68
-95 -68 -5 0 -16 4 -22 10 -29 23 -24 28 167 179 30 23 66 25 74 3z"/>
<path d="M4200 3837 c-19 -7 -63 -33 -97 -58 -34 -24 -101 -71 -149 -104 -180
-124 -201 -142 -223 -188 -29 -59 -32 -76 -33 -184 -1 -73 3 -98 18 -124 17
-29 212 -179 232 -179 5 0 17 -8 28 -18 10 -9 59 -44 108 -76 152 -101 181
-137 172 -214 -8 -60 -50 -88 -108 -72 -19 6 -76 44 -127 86 -51 43 -104 78
-118 80 -18 2 -40 -13 -86 -59 -98 -96 -119 -125 -107 -147 13 -24 216 -193
259 -214 18 -10 55 -20 82 -23 49 -5 84 9 134 54 11 10 49 43 85 73 36 30 76
65 90 78 14 12 46 39 71 60 88 70 100 104 100 271 1 129 -6 143 -99 214 -51
39 -101 73 -339 230 -70 47 -84 68 -96 157 0 6 11 38 25 66 12 25 44 41 73 36
11 -1 72 -43 135 -93 67 -52 124 -89 137 -89 37 0 181 138 194 186 4 13 1 31
-8 44 -30 43 -289 224 -315 220 -2 -1 -19 -7 -38 -13z m73 -139 c59 -40 137
-109 137 -121 0 -7 -9 -18 -19 -24 -17 -11 -30 -3 -105 54 -78 60 -99 87 -79
106 12 12 34 7 66 -15z m-401 -245 c10 -12 14 -34 11 -70 -2 -44 1 -56 24 -83
14 -18 36 -36 47 -41 12 -5 68 -43 126 -84 58 -40 148 -103 200 -139 129 -89
145 -111 145 -205 0 -59 -3 -76 -17 -85 -27 -17 -42 7 -44 67 -2 72 -2 72 -21
93 -10 11 -87 67 -172 125 -84 57 -158 109 -165 114 -6 6 -19 15 -28 20 -99
62 -150 108 -154 140 -1 6 -3 15 -4 20 -1 6 -1 37 0 70 2 72 21 93 52 58z m71
-829 c33 -26 65 -51 71 -55 6 -5 21 -17 32 -27 16 -13 19 -22 13 -39 -5 -13
-14 -23 -21 -23 -21 0 -193 135 -196 155 -4 17 13 35 31 35 5 0 36 -21 70 -46z"/>
<path d="M1601 3446 c-17 -20 -17 -532 0 -552 8 -10 54 -14 192 -16 l181 -3 0
-24 c0 -19 -9 -27 -49 -42 -60 -23 -78 -39 -65 -59 13 -20 356 -22 377 -2 19
19 9 30 -57 59 -42 18 -57 29 -55 41 2 10 4 20 4 25 1 4 81 7 180 7 154 0 180
2 192 17 20 24 22 508 2 541 l-13 22 -439 0 c-369 0 -440 -2 -450 -14z m874
-275 l0 -249 -37 -4 c-48 -4 -58 0 -58 22 0 20 -27 40 -46 33 -6 -2 -16 8 -23
23 -9 20 -9 34 1 60 11 32 10 35 -28 74 -41 42 -64 49 -84 26 -10 -14 -34 -10
-68 10 -1 1 -5 12 -7 24 -6 31 -7 32 -62 35 -56 3 -95 -9 -88 -27 6 -17 -5
-31 -35 -44 -19 -8 -31 -7 -52 5 -29 16 -29 16 -74 -32 -43 -45 -45 -49 -30
-66 19 -21 20 -29 4 -64 -8 -16 -22 -27 -38 -29 -17 -2 -26 -10 -28 -24 -4
-25 -24 -32 -67 -24 l-30 5 -1 240 c0 132 1 243 3 248 2 4 194 7 426 7 l423 0
-1 -249z m-375 9 c0 -21 13 -32 58 -50 28 -11 35 -10 50 3 16 15 20 14 54 -16
35 -31 36 -33 22 -59 -13 -25 -12 -32 6 -67 12 -25 28 -41 42 -43 38 -5 33
-28 -6 -29 -115 -4 -123 -2 -130 29 -13 61 -87 111 -158 106 -64 -4 -138 -68
-138 -118 0 -15 -65 -24 -128 -18 -37 4 -39 25 -4 30 14 2 30 18 43 44 20 38
20 44 6 67 -15 25 -14 28 20 60 34 33 37 33 49 16 13 -17 18 -18 52 -6 48 17
62 29 62 52 0 12 9 19 28 21 45 5 72 -3 72 -22z m10 -165 c35 -18 59 -47 62
-75 l3 -24 -127 -1 c-71 0 -128 4 -128 8 0 4 7 21 15 38 31 59 113 85 175 54z
m-25 -173 c0 -27 6 -37 28 -48 15 -8 27 -16 27 -18 0 -7 -169 0 -176 7 -4 4 2
7 14 7 26 0 41 26 37 63 -3 27 -2 28 33 25 35 -3 37 -5 37 -36z"/>
</g>
</svg>
